M48
;DRILL file {KiCad 4.0.1-stable} date 2016 September 03, Saturday 14:06:36
;FORMAT={-:-/ absolute / inch / decimal}
FMAT,2
INCH,TZ
T1C0.016
T2C0.020
T3C0.031
T4C0.039
T5C0.040
%
G90
G05
M72
T1
X6.2Y-4.05
X6.2Y-4.15
T2
X5.1Y-4.6
X5.25Y-4.6
T3
X4.7Y-3.7
X4.7Y-3.8
X4.7Y-3.9
X4.7Y-4.
X4.7Y-4.1
X4.7Y-4.2
X4.7Y-4.3
X4.7Y-4.4
X5.Y-3.7
X5.Y-3.8
X5.Y-3.9
X5.Y-4.
X5.Y-4.1
X5.Y-4.2
X5.Y-4.3
X5.Y-4.4
X6.05Y-3.8
X6.05Y-4.4
X6.15Y-3.8
X6.15Y-4.4
X6.25Y-3.8
X6.25Y-4.4
X6.35Y-3.8
X6.35Y-4.4
X6.45Y-3.8
X6.45Y-4.4
T4
X5.3Y-3.55
X5.3Y-3.725
X5.3Y-3.9
X5.3Y-4.1
X5.3Y-4.3
X5.3Y-4.5
X5.3Y-4.7
X5.3Y-4.9
X5.7Y-3.55
X5.7Y-3.725
X5.7Y-3.9
X5.7Y-4.1
X5.7Y-4.3
X5.7Y-4.5
X5.7Y-4.7
X5.7Y-4.9
T5
X4.45Y-3.8
X4.45Y-3.9
X4.45Y-4.
X4.45Y-4.1
X4.45Y-4.2
T0
M30
