G04 #@! TF.FileFunction,Legend,Bot*
%FSLAX46Y46*%
G04 Gerber Fmt 4.6, Leading zero omitted, Abs format (unit mm)*
G04 Created by KiCad (PCBNEW 4.0.1-stable) date 2016 September 03, Saturday 14:12:43*
%MOMM*%
G01*
G04 APERTURE LIST*
%ADD10C,0.100000*%
%ADD11C,0.300000*%
G04 APERTURE END LIST*
D10*
D11*
X165905000Y-87880000D02*
X165190714Y-87880000D01*
X166047857Y-88308571D02*
X165547857Y-86808571D01*
X165047857Y-88308571D01*
X164547857Y-88308571D02*
X164547857Y-87308571D01*
X164547857Y-87594286D02*
X164476429Y-87451429D01*
X164405000Y-87380000D01*
X164262143Y-87308571D01*
X164119286Y-87308571D01*
X163619286Y-88308571D02*
X163619286Y-87308571D01*
X163619286Y-87451429D02*
X163547858Y-87380000D01*
X163405000Y-87308571D01*
X163190715Y-87308571D01*
X163047858Y-87380000D01*
X162976429Y-87522857D01*
X162976429Y-88308571D01*
X162976429Y-87522857D02*
X162905000Y-87380000D01*
X162762143Y-87308571D01*
X162547858Y-87308571D01*
X162405000Y-87380000D01*
X162333572Y-87522857D01*
X162333572Y-88308571D01*
X160762143Y-88165714D02*
X160833572Y-88237143D01*
X161047858Y-88308571D01*
X161190715Y-88308571D01*
X161405000Y-88237143D01*
X161547858Y-88094286D01*
X161619286Y-87951429D01*
X161690715Y-87665714D01*
X161690715Y-87451429D01*
X161619286Y-87165714D01*
X161547858Y-87022857D01*
X161405000Y-86880000D01*
X161190715Y-86808571D01*
X161047858Y-86808571D01*
X160833572Y-86880000D01*
X160762143Y-86951429D01*
X159905000Y-88308571D02*
X160047858Y-88237143D01*
X160119286Y-88165714D01*
X160190715Y-88022857D01*
X160190715Y-87594286D01*
X160119286Y-87451429D01*
X160047858Y-87380000D01*
X159905000Y-87308571D01*
X159690715Y-87308571D01*
X159547858Y-87380000D01*
X159476429Y-87451429D01*
X159405000Y-87594286D01*
X159405000Y-88022857D01*
X159476429Y-88165714D01*
X159547858Y-88237143D01*
X159690715Y-88308571D01*
X159905000Y-88308571D01*
X158762143Y-88308571D02*
X158762143Y-87308571D01*
X158762143Y-87451429D02*
X158690715Y-87380000D01*
X158547857Y-87308571D01*
X158333572Y-87308571D01*
X158190715Y-87380000D01*
X158119286Y-87522857D01*
X158119286Y-88308571D01*
X158119286Y-87522857D02*
X158047857Y-87380000D01*
X157905000Y-87308571D01*
X157690715Y-87308571D01*
X157547857Y-87380000D01*
X157476429Y-87522857D01*
X157476429Y-88308571D01*
X156762143Y-88308571D02*
X156762143Y-87308571D01*
X156762143Y-87451429D02*
X156690715Y-87380000D01*
X156547857Y-87308571D01*
X156333572Y-87308571D01*
X156190715Y-87380000D01*
X156119286Y-87522857D01*
X156119286Y-88308571D01*
X156119286Y-87522857D02*
X156047857Y-87380000D01*
X155905000Y-87308571D01*
X155690715Y-87308571D01*
X155547857Y-87380000D01*
X155476429Y-87522857D01*
X155476429Y-88308571D01*
M02*
